<?xml version="1.0" encoding="UTF-8"?>
<!-- Generated by Pixelmator Pro 3.6.7 -->
<svg viewBox="0 0 298 68" xmlns="http://www.w3.org/2000/svg">
    <path id="Path" fill="#000000" fill-rule="evenodd" stroke="none" d="M 51.397499 0.000282 L 0 0 L 0 33.454102 L 34.9375 33.454102 L 34.9375 67.922501 L 68.530098 67.922501 L 68.530098 50.941898 L 51.397701 33.961498 L 68.530098 33.961498 L 68.530098 16.9809 L 51.397499 0.000282 Z M 0 67.922401 L 0 39.309502 L 28.218901 39.309502 L 28.218901 67.922401 L 0 67.922401 Z M 185.169006 50.6814 C 186.850006 51.493401 188.871002 51.899399 191.233002 51.899399 C 193.916 51.899399 196.330994 51.334599 198.477005 50.2048 C 200.623993 49.0397 202.322998 47.4333 203.574997 45.385601 C 204.826996 43.302601 205.453003 40.901901 205.453003 38.183399 C 205.453003 35.394299 204.826996 32.975899 203.574997 30.9282 C 202.358994 28.880501 200.677002 27.291801 198.531006 26.162003 C 196.419998 24.996902 193.987 24.414398 191.233002 24.414398 C 188.835999 24.414398 186.796005 24.767403 185.115005 25.473499 C 183.432999 26.1796 182.074005 27.168198 181.035995 28.439201 C 179.998993 29.6749 179.229996 31.122398 178.729004 32.7817 L 178.729004 14.405399 L 171.753006 14.405399 L 171.753006 51.316898 L 178.246002 51.316898 C 178.352997 50.504902 178.460999 49.463402 178.567993 48.192402 C 178.675003 46.886101 178.729004 45.668098 178.729004 44.5383 L 178.729004 42.772499 C 178.746002 42.831501 178.764008 42.890499 178.783005 42.9496 C 179.283005 44.5383 180.052994 46.021099 181.089996 47.397999 C 182.128006 48.739601 183.487 49.834099 185.169006 50.6814 Z M 178.729004 38.183399 C 178.729004 36.382801 179.139999 34.8647 179.962997 33.629002 C 180.822006 32.358002 182.020004 31.3871 183.559006 30.7164 C 185.097 30.045601 186.904007 29.710197 188.979004 29.710197 C 191.947998 29.710197 194.238007 30.4869 195.848007 32.040298 C 197.492996 33.5937 198.315994 35.641399 198.315994 38.183399 C 198.315994 39.877998 197.923004 41.360901 197.136002 42.631802 C 196.384003 43.8675 195.311005 44.838402 193.916 45.544498 C 192.520004 46.250599 190.875 46.603699 188.979004 46.603699 C 186.867996 46.603699 185.042999 46.250599 183.505005 45.544498 C 181.966995 44.838402 180.785995 43.849899 179.962997 42.578899 C 179.139999 41.307899 178.729004 39.842701 178.729004 38.183399 Z M 96.410202 51.316898 L 96.410202 17.053299 L 119.968002 17.053299 C 122.652 17.053299 124.976997 17.424 126.945 18.165398 C 128.947998 18.871498 130.503998 20.001198 131.613007 21.554703 C 132.723007 23.0728 133.276993 25.0322 133.276993 27.432999 C 133.276993 29.056999 132.990997 30.433899 132.417999 31.563698 C 131.845993 32.693401 131.041 33.611401 130.003998 34.317501 C 129.001999 35.023602 127.838997 35.570801 126.514999 35.959202 C 125.893997 36.125 125.251999 36.263599 124.591003 36.374901 C 125.764999 36.481701 126.800003 36.6432 127.695999 36.859402 C 129.306 37.212502 130.503998 37.883301 131.292007 38.871799 C 132.113998 39.8251 132.526001 41.254902 132.526001 43.1614 L 132.526001 51.316898 L 125.389 51.316898 L 125.389 43.638 C 125.389 42.331699 125.155998 41.3255 124.691002 40.6194 C 124.225998 39.877998 123.385002 39.3661 122.168999 39.083698 C 120.987999 38.801201 119.271004 38.66 117.016998 38.66 L 103.546997 38.66 L 103.546997 51.316898 L 96.410202 51.316898 Z M 103.546997 33.152401 L 119.968002 33.152401 C 121.972 33.152401 123.491997 32.6758 124.529999 31.7225 C 125.602997 30.769302 126.139999 29.480698 126.139999 27.856598 C 126.139999 26.3032 125.602997 25.120499 124.529999 24.308502 C 123.491997 23.496399 121.972 23.090401 119.968002 23.090401 L 103.546997 23.090401 L 103.546997 33.152401 Z M 161.302002 42.578899 L 168.063995 42.578899 C 167.778 44.379398 167.009003 45.985802 165.757004 47.397999 C 164.539993 48.8102 162.876999 49.922401 160.766006 50.734402 C 158.654999 51.546398 156.078995 51.9524 153.037994 51.9524 C 149.639999 51.9524 146.634003 51.422798 144.022995 50.363701 C 141.410995 49.269199 139.371994 47.698101 137.904999 45.650398 C 136.438004 43.602699 135.705002 41.131401 135.705002 38.236301 C 135.705002 35.341301 136.419998 32.869999 137.850998 30.8223 C 139.283005 28.7393 141.268005 27.150497 143.807999 26.056099 C 146.384003 24.961601 149.389008 24.414398 152.824005 24.414398 C 156.330002 24.414398 159.244995 24.961601 161.570999 26.056099 C 163.895996 27.150497 165.613007 28.809898 166.723007 31.0341 C 167.867004 33.223 168.350006 36.0298 168.171005 39.454399 L 142.735001 39.454399 C 142.914001 40.796001 143.414993 42.014 144.237 43.108501 C 145.095993 44.2029 146.240997 45.067902 147.671997 45.7034 C 149.139008 46.338902 150.873993 46.656601 152.876999 46.656601 C 155.095001 46.656601 156.938004 46.2859 158.404999 45.544498 C 159.906998 44.767799 160.873001 43.779301 161.302002 42.578899 Z M 152.501999 29.6572 C 149.925995 29.6572 147.832993 30.222099 146.223007 31.351799 C 144.613007 32.446301 143.576004 33.805599 143.110992 35.4296 L 161.248993 35.4296 C 161.070007 33.664299 160.210999 32.269798 158.673004 31.245899 C 157.169998 30.186798 155.113007 29.6572 152.501999 29.6572 Z M 232.238998 42.578899 L 239.001007 42.578899 C 238.714996 44.379398 237.945007 45.985802 236.692993 47.397999 C 235.477005 48.8102 233.813004 49.922401 231.701996 50.734402 C 229.591995 51.546398 227.016006 51.9524 223.975006 51.9524 C 220.576004 51.9524 217.570999 51.422798 214.959 50.363701 C 212.348007 49.269199 210.309006 47.698101 208.841995 45.650398 C 207.375 43.602699 206.641998 41.131401 206.641998 38.236301 C 206.641998 35.341301 207.356995 32.869999 208.787994 30.8223 C 210.218994 28.7393 212.205002 27.150497 214.744995 26.056099 C 217.320999 24.961601 220.326004 24.414398 223.759995 24.414398 C 227.266006 24.414398 230.182007 24.961601 232.507004 26.056099 C 234.832993 27.150497 236.550003 28.809898 237.658997 31.0341 C 238.804001 33.223 239.287003 36.0298 239.108002 39.454399 L 213.671005 39.454399 C 213.850006 40.796001 214.350998 42.014 215.173996 43.108501 C 216.033005 44.2029 217.177994 45.067902 218.608994 45.7034 C 220.074997 46.338902 221.809998 46.656601 223.813995 46.656601 C 226.031998 46.656601 227.873993 46.2859 229.341003 45.544498 C 230.843994 44.767799 231.809998 43.779301 232.238998 42.578899 Z M 223.438004 29.6572 C 220.862 29.6572 218.770004 30.222099 217.160004 31.351799 C 215.550003 32.446301 214.511993 33.805599 214.046997 35.4296 L 232.184998 35.4296 C 232.007004 33.664299 231.147995 32.269798 229.610001 31.245899 C 228.106995 30.186798 226.050003 29.6572 223.438004 29.6572 Z M 249.128998 14.405399 L 242.153 14.405399 L 242.153 51.316898 L 249.128998 51.316898 L 249.128998 14.405399 Z M 288.276001 17.053299 L 288.276001 22.931602 L 261.550995 22.931602 L 261.550995 32.146198 L 283.446014 32.146198 L 283.446014 37.653801 L 261.550995 37.653801 L 261.550995 51.316898 L 254.414001 51.316898 L 254.414001 17.053299 L 288.276001 17.053299 Z M 298 22.931499 L 298 17.053299 L 291.023987 17.053299 L 291.023987 22.931499 L 298 22.931499 Z M 298 24.996902 L 291.023987 24.996902 L 291.023987 51.316898 L 298 51.316898 L 298 24.996902 Z"/>
</svg>
